<?xml version="1.0" encoding="utf-8"?>
<!-- Generator: Adobe Illustrator 17.0.0, SVG Export Plug-In . SVG Version: 6.00 Build 0)  -->
<!DOCTYPE svg PUBLIC "-//W3C//DTD SVG 1.1//EN" "http://www.w3.org/Graphics/SVG/1.1/DTD/svg11.dtd">
<svg version="1.1" id="Layer_1" xmlns="http://www.w3.org/2000/svg" xmlns:xlink="http://www.w3.org/1999/xlink" x="0px" y="0px"
	 width="18px" height="10px" viewBox="-0.5 0.5 18 10" enable-background="new -0.5 0.5 18 10" xml:space="preserve">
<g id="Captions">
</g>
<g>
	<path d="M8.5,0.5c-4.485,0-9,5-9,5s4.515,5,9,5s9-5,9-5S12.985,0.5,8.5,0.5z M8.501,9.1C6.512,9.1,4.9,7.49,4.9,5.499
		C4.9,3.512,6.512,1.9,8.501,1.9c1.988,0,3.599,1.612,3.599,3.599C12.1,7.49,10.489,9.1,8.501,9.1z"/>
	<path d="M8.5,3.75c-0.965,0-1.75,0.785-1.75,1.749c0,0.965,0.785,1.751,1.75,1.751c0.964,0,1.75-0.785,1.75-1.751
		C10.25,4.535,9.464,3.75,8.5,3.75z"/>
</g>
</svg>
